# xmcd
#
# Track frame offsets:
#	150
#	19037
#	33077
#	54902
#	82105
#	92862
#	113715
#	142115
#	164107
#	175640
#	196797
#	204220
#	214940
#	220735
#	245040
#	265362
#	283005
#	294195
#	307067
#	321697
#
# Disc length: 4560 seconds
#
# Revision: 0
# Processed by: cddbd v1.5.2PL0 Copyright (c) Steve Scherf et al.
# Submitted via: EZCDAudioConverter 2.1.7.1
#
DISCID=3011ce14
DTITLE=V/A - Varèse Sarabande: A 25th Anniversary Celebration 3/4
DYEAR=2003
DGENRE=
TTITLE0=Danny Elfman - To Die For
TTITLE1=Thomas Newman - The Player
TTITLE2=Georges Delerue - Black Robe
TTITLE3=Jerry Goldsmith - Medicine Man
TTITLE4=Alex North - 2001
TTITLE5=Joel McNeely - Star Wars: Shadows Of The Empire
TTITLE6=Graeme Revell - The Crow
TTITLE7=Mark Isham - Blade
TTITLE8=Jerry Goldsmith - The Omen
TTITLE9=Bernard Herrmann - Vertigo
TTITLE10=Marco Beltrami - Scream
TTITLE11=James Newton Howard - The Sixth Sense
TTITLE12=Joseph LoDuca - Xena: Warrior Princess
TTITLE13=Jerry Goldsmith - Air Force One
TTITLE14=Basil Poledouris - Starship Troopers
TTITLE15=Don Davis - The Matrix
TTITLE16=Michael Kamen - The Iron Giant
TTITLE17=George Fenton - You've Got Mail
TTITLE18=Georges Delerue - A Little Romance
TTITLE19=Randy Newman - Pleasantville
EXTD=
EXTT0=
EXTT1=
EXTT2=
EXTT3=
EXTT4=
EXTT5=
EXTT6=
EXTT7=
EXTT8=
EXTT9=
EXTT10=
EXTT11=
EXTT12=
EXTT13=
EXTT14=
EXTT15=
EXTT16=
EXTT17=
EXTT18=
EXTT19=
PLAYORDER=
